<svg viewBox="0 0 60 60"><path d="M49.122 9.986l-2.728-5.455c-.34-.678-1.449-.678-1.789 0L42.5 8.742l-2.106-4.211c-.34-.678-1.449-.678-1.789 0L36.5 8.742l-2.106-4.211c-.34-.678-1.449-.678-1.789 0L30 9.742l-2.606-5.211c-.34-.678-1.449-.678-1.789 0L23.5 8.742l-2.106-4.211c-.34-.678-1.449-.678-1.789 0L17.5 8.742l-2.106-4.211c-.34-.678-1.449-.678-1.789 0l-2.728 5.455a1 1 0 0 0-.877.992v44a1 1 0 0 0 1 1h38a1 1 0 0 0 1-1v-44a1 1 0 0 0-.878-.992zM48 53.978H12V11.844a.997.997 0 0 0 .394-.419L14.5 7.214l2.105 4.211c.34.678 1.449.678 1.789 0L20.5 7.214l2.105 4.211c.34.678 1.449.678 1.789 0L26.5 7.214l2.105 4.211c.17.339.516.553.895.553h1a.998.998 0 0 0 .894-.553L33.5 7.214l2.105 4.211c.34.678 1.449.678 1.789 0L39.5 7.214l2.105 4.211c.34.678 1.449.678 1.789 0L45.5 7.214l2.105 4.211c.09.179.228.322.395.419v42.134zm-20-31a1 1 0 0 1 1-1h14a1 1 0 1 1 0 2H29a1 1 0 0 1-1-1zm0 5a1 1 0 0 1 1-1h14a1 1 0 1 1 0 2H29a1 1 0 0 1-1-1zm0 5a1 1 0 0 1 1-1h14a1 1 0 1 1 0 2H29a1 1 0 0 1-1-1zm0 5a1 1 0 0 1 1-1h14a1 1 0 1 1 0 2H29a1 1 0 0 1-1-1zm-2.727-11.857L21.01 37.875a1.006 1.006 0 0 1-.941.659c-.147 0-.296-.033-.432-.098l-4.264-2.041a1.001 1.001 0 0 1 .863-1.805l3.268 1.564 3.886-10.716a1.005 1.005 0 0 1 1.281-.6c.522.191.79.764.602 1.283zM44 40.978H28a1 1 0 0 0-1 1v6a1 1 0 0 0 1 1h16a1 1 0 0 0 1-1v-6a1 1 0 0 0-1-1zm-1 6H29v-4h14v4z"/></svg>