<svg viewBox="0 0 60 60"><path d="M24 26c4.411 0 8-3.589 8-8s-3.589-8-8-8-8 3.589-8 8 3.589 8 8 8zm6-8c0 .256-.021.506-.053.753l-5.201-.78-3.257-5.416A5.962 5.962 0 0 1 24 12c3.309 0 6 2.691 6 6zm-10.164-4.31l3.44 5.718c.154.256.414.429.708.474l5.373.806A6 6 0 0 1 24 24c-3.309 0-6-2.691-6-6 0-1.691.706-3.219 1.836-4.31zM17 30h21.026v2H17v-2zm14 7H17v-2h14v2zm-14 3h18v2H17v-2zM40 4H11a1 1 0 0 0-1 1v51a1 1 0 0 0 1 1h38a1 1 0 0 0 1-1V14c0-5.523-4.477-10-10-10zm8 51H12V6h28c4.411 0 8 3.589 8 8v41z"/></svg>